<?xml version='1.0' encoding='utf-8'?>
<svg xmlns="http://www.w3.org/2000/svg" width="500" height="500" viewBox="0 0 499.99998 499.99998" id="svg2" version="1.1"> <defs id="defs4"/> <metadata id="metadata7"> </metadata> <g id="layer2"> <path style="color:#000000;font-style:normal;font-variant:normal;font-weight:normal;font-stretch:normal;font-size:medium;line-height:normal;font-family:sans-serif;text-indent:0;text-align:start;text-decoration:none;text-decoration-line:none;text-decoration-style:solid;text-decoration-color:#000000;letter-spacing:normal;word-spacing:normal;text-transform:none;direction:ltr;block-progression:tb;writing-mode:lr-tb;baseline-shift:baseline;text-anchor:start;white-space:normal;clip-rule:nonzero;display:inline;overflow:visible;visibility:visible;opacity:1;isolation:auto;mix-blend-mode:normal;color-interpolation:sRGB;color-interpolation-filters:linearRGB;solid-color:#000000;solid-opacity:1;fill:none;fill-opacity:1;fill-rule:evenodd;stroke:#aba0ff;stroke-width:11.99999905;stroke-linecap:round;stroke-linejoin:round;stroke-miterlimit:4;stroke-dasharray:none;stroke-dashoffset:0;stroke-opacity:1;color-rendering:auto;image-rendering:auto;shape-rendering:auto;text-rendering:auto;enable-background:accumulate" d="m 170.05676,122.47027 c -1.73816,2.56076 -3.35619,5.20863 -4.84585,7.93546 m -7.33167,17.24283 c -0.94324,3.00987 -1.74163,6.08232 -2.38693,9.20918 -1.29061,6.25371 -1.96887,12.725 -1.96887,19.34844 l 0,56.73828 m 32,0 0,-56.73828 c 0,-4.45526 0.44768,-8.80043 1.3011,-12.99342 0.85342,-4.19298 2.11257,-8.23379 3.7355,-12.08032 1.62293,-3.84653 3.60965,-7.49879 5.91819,-10.91468 2.30855,-3.4159 4.93893,-6.59543 7.84919,-9.4965 2.91026,-2.90108 6.1004,-5.5237 9.52847,-7.82578 3.42807,-2.30208 7.09408,-4.28362 10.95606,-5.90252 3.86198,-1.6189 7.91994,-2.87516 12.13194,-3.7267 4.21199,-0.85154 8.57801,-1.29836 13.05611,-1.29836 35.82481,0 64.47656,28.59618 64.47656,64.23828 l 0,56.73828 m 32,0 0,-56.73828 c 0,-52.98748 -43.40883,-96.238281 -96.47656,-96.238281 -6.63347,0 -13.11601,0.675794 -19.38172,1.961924 -6.2657,1.28613 -12.31457,3.182597 -18.08069,5.623943 -5.76611,2.441346 -11.24947,5.427571 -16.38415,8.893218" id="path4171"/> <path style="color:#000000;clip-rule:nonzero;display:inline;overflow:visible;visibility:visible;opacity:1;isolation:auto;mix-blend-mode:normal;color-interpolation:sRGB;color-interpolation-filters:linearRGB;solid-color:#000000;solid-opacity:1;fill:none;fill-opacity:1;fill-rule:evenodd;stroke:#aba0ff;stroke-width:11.99999905;stroke-linecap:round;stroke-linejoin:round;stroke-miterlimit:4;stroke-dasharray:none;stroke-dashoffset:0;stroke-opacity:1;color-rendering:auto;image-rendering:auto;shape-rendering:auto;text-rendering:auto;enable-background:accumulate" d="m 372.7572,303.19413 0,28.82843 m 0,16.08274 0,26.63089 0,16.08275 c 0,16.18406 -13.02904,29.2131 -29.2131,29.2131 l -187.0882,0 c -16.18406,0 -29.2131,-13.02904 -29.2131,-29.2131 l 0,-128.66196 c 0,-16.18406 13.02904,-29.2131 29.2131,-29.2131 l 187.0882,0 c 16.18406,0 29.2131,13.02904 29.2131,29.2131 l 0,5.5346 0,16.08274" id="rect4169"/> <path style="color:#000000;clip-rule:nonzero;display:inline;overflow:visible;visibility:visible;opacity:1;isolation:auto;mix-blend-mode:normal;color-interpolation:sRGB;color-interpolation-filters:linearRGB;solid-color:#000000;solid-opacity:1;fill:none;fill-opacity:1;fill-rule:evenodd;stroke:#aba0ff;stroke-width:12;stroke-linecap:round;stroke-linejoin:round;stroke-miterlimit:4;stroke-dasharray:none;stroke-dashoffset:0;stroke-opacity:1;color-rendering:auto;image-rendering:auto;shape-rendering:auto;text-rendering:auto;enable-background:accumulate" d="m 204.18316,345.84297 c -2.51619,-5.94895 -3.90759,-12.48948 -3.90759,-19.35499 m 0,0 c 0,-6.86551 1.3914,-13.40605 3.90759,-19.35499 m 0,0 c 2.51619,-5.94895 6.15718,-11.30632 10.65636,-15.8055 4.49917,-4.49917 9.85654,-8.14016 15.80549,-10.65636 5.94895,-2.51619 12.48948,-3.90759 19.35499,-3.90759 6.86551,0 13.40604,1.3914 19.35499,3.90759 5.94895,2.5162 11.30632,6.15718 15.80549,10.65636 4.49918,4.49918 8.14017,9.85654 10.65636,15.80549 2.51619,5.94895 3.90759,12.48949 3.90759,19.355 0,6.86551 -1.3914,13.40604 -3.90759,19.35499 -2.5162,5.94895 -6.15718,11.30631 -10.65636,15.80549 -4.49918,4.49918 -9.85654,8.14016 -15.80549,10.65636 -5.94895,2.51619 -12.48948,3.90759 -19.35499,3.90759 -6.86551,0 -13.40604,-1.3914 -19.35499,-3.90759 -5.94895,-2.51619 -11.30631,-6.15718 -15.80549,-10.65636" id="path4180"/> <path style="color:#000000;clip-rule:nonzero;display:inline;overflow:visible;visibility:visible;opacity:1;isolation:auto;mix-blend-mode:normal;color-interpolation:sRGB;color-interpolation-filters:linearRGB;solid-color:#000000;solid-opacity:1;fill:none;fill-opacity:1;fill-rule:evenodd;stroke:#aba0ff;stroke-width:12;stroke-linecap:round;stroke-linejoin:round;stroke-miterlimit:4;stroke-dasharray:none;stroke-dashoffset:0;stroke-opacity:1;color-rendering:auto;image-rendering:auto;shape-rendering:auto;text-rendering:auto;enable-background:accumulate" d="m 250,302.94273 0,47.0905" id="path4188"/> </g> </svg>